<svg xmlns="http://www.w3.org/2000/svg" xmlns:xlink="http://www.w3.org/1999/xlink" width="50.00877380371094" height="44.9490966796875" viewBox="0 0 50.00877380371094 44.9490966796875" fill="none">
<path d="M47.759 31.6022C47.209 31.1972 46.638 31.0146 46.0771 30.9422C47.3942 27.211 48.2309 22.3337 45.3771 17.4822C41.01 10.0594 34.7453 6.19664 26.768 6.0122C24.4957 5.96048 21.8208 6.08121 18.9862 6.2122C15.6948 6.36387 11.3087 6.56833 8.33168 6.2822C8.92502 5.90824 9.55708 5.55071 10.1044 5.2422C12.1988 4.05824 13.8502 3.1277 13.3044 1.4922C13.0181 0.537372 12.1607 0.0383979 10.759 0.00219727C7.80866 -0.0753296 1.43281 1.9105 0.286228 5.2522C-0.358981 7.1342 -0.456787 10.7614 6.07714 13.9722C8.76489 15.2958 16.3476 16.9144 19.2771 17.2522C20.1048 17.3453 20.7511 17.5354 21.2317 17.7422C20.5598 18.2558 19.8608 18.8007 19.168 19.3522C17.9651 18.556 16.0001 17.6189 14.5317 18.7822C13.9636 19.2286 13.6374 19.8825 13.6226 20.6322C13.6018 21.5645 14.0934 22.478 14.6408 23.2122C12.4781 25.2165 10.7245 27.1545 10.1044 28.6522C9.4132 30.4928 9.13213 33.5035 10.4226 36.4422C12.0602 40.1716 15.6802 42.7729 21.1862 44.1722C28.3817 45.9973 34.6018 44.3565 38.7135 41.8422C41.0022 40.4429 42.6243 38.7728 43.4135 37.2822C43.6585 37.3721 43.8978 37.4608 44.1499 37.5522C44.5015 37.6759 44.8571 37.8059 45.1862 37.9422C46.275 38.3796 47.4864 38.315 48.4135 37.7722C48.4297 37.7722 48.441 37.7523 48.459 37.7422C49.1577 37.3144 49.6654 36.6292 49.8862 35.8022C50.4796 33.5721 48.7798 32.345 47.759 31.6022ZM18.7499 27.8722C18.096 27.8722 17.5771 28.4929 17.5771 29.2522C17.5771 30.0132 18.096 30.6222 18.7499 30.6222C19.4037 30.6222 19.9317 30.0132 19.9317 29.2522C19.9317 28.4929 19.4037 27.8722 18.7499 27.8722ZM29.9044 31.9922C29.2506 31.9922 28.7226 32.6129 28.7226 33.3722C28.7226 34.133 29.2506 34.7422 29.9044 34.7422C30.5582 34.7422 31.0862 34.133 31.0862 33.3722C31.0862 32.6129 30.5582 31.9922 29.9044 31.9922Z" fill-rule="evenodd"  fill="#A2A1AA" >
</path>
</svg>
