<svg xmlns="http://www.w3.org/2000/svg" xmlns:xlink="http://www.w3.org/1999/xlink" width="50" height="49.99896240234375" viewBox="0 0 50 49.99896240234375" fill="none">
<path d="M25 0C38.8125 0 50 11.4689 50 25.63C50 36.6454 43.1471 46.4282 32.97 49.95C31.72 50.2065 31.25 49.4039 31.25 48.73C31.25 47.8648 31.28 45.1183 31.28 41.69C31.28 39.2878 30.4963 37.74 29.59 36.94C35.1525 36.2987 41 34.1271 41 24.29C41 21.4704 40.0337 19.1935 38.44 17.4C38.69 16.7587 39.565 14.1262 38.19 10.6C38.19 10.6 36.0913 9.89733 31.31 13.23C29.264 12.6484 27.1806 12.37 25.06 12.37C22.935 12.37 20.81 12.6539 18.81 13.23C14.0288 9.92994 11.94 10.6 11.94 10.6C10.565 14.1262 11.44 16.7587 11.69 17.4C10.0963 19.1935 9.12 21.503 9.12 24.29C9.12 34.0945 14.9375 36.2987 20.5 36.94C19.7812 37.5791 19.1287 38.7026 18.91 40.37C17.4725 41.0439 13.87 42.1362 11.62 38.26C11.1512 37.4904 9.74875 35.5996 7.78 35.63C5.68625 35.6626 6.935 36.8496 7.81 37.33C8.8725 37.9387 10.0887 40.213 10.37 40.95C10.87 42.3913 12.4988 45.1448 18.78 43.96C18.78 46.1079 18.81 48.1213 18.81 48.73C18.81 49.4039 18.34 50.1761 17.09 49.95C6.8775 46.4652 0 36.665 0 25.63C0 11.4667 11.1875 0 25 0Z" fill-rule="evenodd"  fill="#A2A1AA" >
</path>
</svg>
